<?xml version="1.0" encoding="UTF-8" standalone="no"?>
<!DOCTYPE svg PUBLIC "-//W3C//DTD SVG 1.1//EN"
 "http://www.w3.org/Graphics/SVG/1.1/DTD/svg11.dtd">
<!-- Generated by graphviz version 2.47.0 (20210316.0004)
 -->
<!-- Title: dependencies Pages: 1 -->
<svg width="2592pt" height="284pt"
 viewBox="0.00 0.00 2592.00 284.00" xmlns="http://www.w3.org/2000/svg" xmlns:xlink="http://www.w3.org/1999/xlink">
<g id="graph0" class="graph" transform="scale(1 1) rotate(0) translate(4 280)">
<title>dependencies</title>
<polygon fill="white" stroke="transparent" points="-4,4 -4,-280 2588,-280 2588,4 -4,4"/>
<text text-anchor="start" x="1271.01" y="-42.4" font-family="Times-12" font-weight="bold" font-size="14.00">Legend</text>
<polygon fill="#ffffb3" stroke="transparent" points="1058,-10 1058,-30 1078,-30 1078,-10 1058,-10"/>
<text text-anchor="start" x="1081.63" y="-15.4" font-family="Times-12" font-size="14.00"> &#160;Declarations</text>
<polygon fill="#8dd3c7" stroke="transparent" points="1171,-10 1171,-30 1191,-30 1191,-10 1171,-10"/>
<text text-anchor="start" x="1194.73" y="-15.4" font-family="Times-12" font-size="14.00"> &#160;Module</text>
<polygon fill="#80b1d3" stroke="transparent" points="1257,-10 1257,-30 1277,-30 1277,-10 1257,-10"/>
<text text-anchor="start" x="1280.78" y="-15.4" font-family="Times-12" font-size="14.00"> &#160;Bootstrap</text>
<polygon fill="#fdb462" stroke="transparent" points="1354,-10 1354,-30 1374,-30 1374,-10 1354,-10"/>
<text text-anchor="start" x="1377.67" y="-15.4" font-family="Times-12" font-size="14.00"> &#160;Providers</text>
<polygon fill="#fb8072" stroke="transparent" points="1450,-10 1450,-30 1470,-30 1470,-10 1450,-10"/>
<text text-anchor="start" x="1473.73" y="-15.4" font-family="Times-12" font-size="14.00"> &#160;Exports</text>
<g id="clust1" class="cluster">
<title>cluster_AppModule</title>
<polygon fill="none" stroke="black" stroke-dasharray="1,5" points="8,-70 8,-268 2576,-268 2576,-70 8,-70"/>
</g>
<g id="clust18" class="cluster">
<title>cluster_AppModule_imports</title>
<polygon fill="none" stroke="black" points="2189,-78 2189,-130 2568,-130 2568,-78 2189,-78"/>
</g>
<g id="clust20" class="cluster">
<title>cluster_AppModule_bootstrap</title>
<polygon fill="none" stroke="black" points="1237,-208 1237,-260 1361,-260 1361,-208 1237,-208"/>
</g>
<g id="clust2" class="cluster">
<title>cluster_AppModule_declarations</title>
<polygon fill="none" stroke="black" points="16,-78 16,-130 2181,-130 2181,-78 16,-78"/>
</g>
<!-- AppComponent -->
<g id="node1" class="node">
<title>AppComponent</title>
<polygon fill="#ffffb3" stroke="black" points="2172.94,-122 2067.06,-122 2067.06,-86 2172.94,-86 2172.94,-122"/>
<text text-anchor="middle" x="2120" y="-99.8" font-family="Times,serif" font-size="14.00">AppComponent</text>
</g>
<!-- AppModule -->
<g id="node16" class="node">
<title>AppModule</title>
<polygon fill="#8dd3c7" stroke="black" points="1340.66,-187 1337.66,-191 1316.66,-191 1313.66,-187 1257.34,-187 1257.34,-151 1340.66,-151 1340.66,-187"/>
<text text-anchor="middle" x="1299" y="-164.8" font-family="Times,serif" font-size="14.00">AppModule</text>
</g>
<!-- AppComponent&#45;&gt;AppModule -->
<g id="edge1" class="edge">
<title>AppComponent&#45;&gt;AppModule</title>
<path fill="none" stroke="black" d="M2120,-122.31C2120,-142.15 2120,-171 2120,-171 2120,-171 1350.84,-171 1350.84,-171"/>
<polygon fill="black" stroke="black" points="1350.84,-167.5 1340.84,-171 1350.84,-174.5 1350.84,-167.5"/>
</g>
<!-- AuthLayoutComponent -->
<g id="node2" class="node">
<title>AuthLayoutComponent</title>
<polygon fill="#ffffb3" stroke="black" points="2049.49,-122 1900.51,-122 1900.51,-86 2049.49,-86 2049.49,-122"/>
<text text-anchor="middle" x="1975" y="-99.8" font-family="Times,serif" font-size="14.00">AuthLayoutComponent</text>
</g>
<!-- AuthLayoutComponent&#45;&gt;AppModule -->
<g id="edge2" class="edge">
<title>AuthLayoutComponent&#45;&gt;AppModule</title>
<path fill="none" stroke="black" d="M1975,-122.22C1975,-140.83 1975,-167 1975,-167 1975,-167 1350.78,-167 1350.78,-167"/>
<polygon fill="black" stroke="black" points="1350.78,-163.5 1340.78,-167 1350.78,-170.5 1350.78,-163.5"/>
</g>
<!-- BlankLayoutComponent -->
<g id="node3" class="node">
<title>BlankLayoutComponent</title>
<polygon fill="#ffffb3" stroke="black" points="1882.43,-122 1727.57,-122 1727.57,-86 1882.43,-86 1882.43,-122"/>
<text text-anchor="middle" x="1805" y="-99.8" font-family="Times,serif" font-size="14.00">BlankLayoutComponent</text>
</g>
<!-- BlankLayoutComponent&#45;&gt;AppModule -->
<g id="edge3" class="edge">
<title>BlankLayoutComponent&#45;&gt;AppModule</title>
<path fill="none" stroke="black" d="M1805,-122.02C1805,-139.37 1805,-163 1805,-163 1805,-163 1350.84,-163 1350.84,-163"/>
<polygon fill="black" stroke="black" points="1350.84,-159.5 1340.84,-163 1350.84,-166.5 1350.84,-159.5"/>
</g>
<!-- BrandsComponent -->
<g id="node4" class="node">
<title>BrandsComponent</title>
<polygon fill="#ffffb3" stroke="black" points="1709.49,-122 1588.51,-122 1588.51,-86 1709.49,-86 1709.49,-122"/>
<text text-anchor="middle" x="1649" y="-99.8" font-family="Times,serif" font-size="14.00">BrandsComponent</text>
</g>
<!-- BrandsComponent&#45;&gt;AppModule -->
<g id="edge4" class="edge">
<title>BrandsComponent&#45;&gt;AppModule</title>
<path fill="none" stroke="black" d="M1649,-122.01C1649,-138.05 1649,-159 1649,-159 1649,-159 1350.87,-159 1350.87,-159"/>
<polygon fill="black" stroke="black" points="1350.87,-155.5 1340.87,-159 1350.87,-162.5 1350.87,-155.5"/>
</g>
<!-- CartComponent -->
<g id="node5" class="node">
<title>CartComponent</title>
<polygon fill="#ffffb3" stroke="black" points="1570.94,-122 1465.06,-122 1465.06,-86 1570.94,-86 1570.94,-122"/>
<text text-anchor="middle" x="1518" y="-99.8" font-family="Times,serif" font-size="14.00">CartComponent</text>
</g>
<!-- CartComponent&#45;&gt;AppModule -->
<g id="edge5" class="edge">
<title>CartComponent&#45;&gt;AppModule</title>
<path fill="none" stroke="black" d="M1518,-122.12C1518,-136.78 1518,-155 1518,-155 1518,-155 1350.71,-155 1350.71,-155"/>
<polygon fill="black" stroke="black" points="1350.71,-151.5 1340.71,-155 1350.71,-158.5 1350.71,-151.5"/>
</g>
<!-- CategoriesComponent -->
<g id="node6" class="node">
<title>CategoriesComponent</title>
<polygon fill="#ffffb3" stroke="black" points="1447.7,-122 1306.3,-122 1306.3,-86 1447.7,-86 1447.7,-122"/>
<text text-anchor="middle" x="1377" y="-99.8" font-family="Times,serif" font-size="14.00">CategoriesComponent</text>
</g>
<!-- CategoriesComponent&#45;&gt;AppModule -->
<g id="edge6" class="edge">
<title>CategoriesComponent&#45;&gt;AppModule</title>
<path fill="none" stroke="black" d="M1323.61,-122.11C1323.61,-122.11 1323.61,-140.99 1323.61,-140.99"/>
<polygon fill="black" stroke="black" points="1320.11,-140.99 1323.61,-150.99 1327.11,-140.99 1320.11,-140.99"/>
</g>
<!-- CheckoutComponent -->
<g id="node7" class="node">
<title>CheckoutComponent</title>
<polygon fill="#ffffb3" stroke="black" points="1288.49,-122 1153.51,-122 1153.51,-86 1288.49,-86 1288.49,-122"/>
<text text-anchor="middle" x="1221" y="-99.8" font-family="Times,serif" font-size="14.00">CheckoutComponent</text>
</g>
<!-- CheckoutComponent&#45;&gt;AppModule -->
<g id="edge7" class="edge">
<title>CheckoutComponent&#45;&gt;AppModule</title>
<path fill="none" stroke="black" d="M1272.83,-122.11C1272.83,-122.11 1272.83,-140.99 1272.83,-140.99"/>
<polygon fill="black" stroke="black" points="1269.33,-140.99 1272.83,-150.99 1276.33,-140.99 1269.33,-140.99"/>
</g>
<!-- DetailsComponent -->
<g id="node8" class="node">
<title>DetailsComponent</title>
<polygon fill="#ffffb3" stroke="black" points="1135.48,-122 1014.52,-122 1014.52,-86 1135.48,-86 1135.48,-122"/>
<text text-anchor="middle" x="1075" y="-99.8" font-family="Times,serif" font-size="14.00">DetailsComponent</text>
</g>
<!-- DetailsComponent&#45;&gt;AppModule -->
<g id="edge8" class="edge">
<title>DetailsComponent&#45;&gt;AppModule</title>
<path fill="none" stroke="black" d="M1075,-122.12C1075,-136.78 1075,-155 1075,-155 1075,-155 1247.13,-155 1247.13,-155"/>
<polygon fill="black" stroke="black" points="1247.13,-158.5 1257.13,-155 1247.13,-151.5 1247.13,-158.5"/>
</g>
<!-- FooterComponent -->
<g id="node9" class="node">
<title>FooterComponent</title>
<polygon fill="#ffffb3" stroke="black" points="996.88,-122 879.12,-122 879.12,-86 996.88,-86 996.88,-122"/>
<text text-anchor="middle" x="938" y="-99.8" font-family="Times,serif" font-size="14.00">FooterComponent</text>
</g>
<!-- FooterComponent&#45;&gt;AppModule -->
<g id="edge9" class="edge">
<title>FooterComponent&#45;&gt;AppModule</title>
<path fill="none" stroke="black" d="M938,-122.01C938,-138.05 938,-159 938,-159 938,-159 1247.24,-159 1247.24,-159"/>
<polygon fill="black" stroke="black" points="1247.24,-162.5 1257.24,-159 1247.24,-155.5 1247.24,-162.5"/>
</g>
<!-- HomeComponent -->
<g id="node10" class="node">
<title>HomeComponent</title>
<polygon fill="#ffffb3" stroke="black" points="860.55,-122 745.45,-122 745.45,-86 860.55,-86 860.55,-122"/>
<text text-anchor="middle" x="803" y="-99.8" font-family="Times,serif" font-size="14.00">HomeComponent</text>
</g>
<!-- HomeComponent&#45;&gt;AppModule -->
<g id="edge10" class="edge">
<title>HomeComponent&#45;&gt;AppModule</title>
<path fill="none" stroke="black" d="M803,-122.02C803,-139.37 803,-163 803,-163 803,-163 1247.14,-163 1247.14,-163"/>
<polygon fill="black" stroke="black" points="1247.14,-166.5 1257.14,-163 1247.14,-159.5 1247.14,-166.5"/>
</g>
<!-- LoginComponent -->
<g id="node11" class="node">
<title>LoginComponent</title>
<polygon fill="#ffffb3" stroke="black" points="727.28,-122 612.72,-122 612.72,-86 727.28,-86 727.28,-122"/>
<text text-anchor="middle" x="670" y="-99.8" font-family="Times,serif" font-size="14.00">LoginComponent</text>
</g>
<!-- LoginComponent&#45;&gt;AppModule -->
<g id="edge11" class="edge">
<title>LoginComponent&#45;&gt;AppModule</title>
<path fill="none" stroke="black" d="M670,-122.22C670,-140.83 670,-167 670,-167 670,-167 1247.24,-167 1247.24,-167"/>
<polygon fill="black" stroke="black" points="1247.24,-170.5 1257.24,-167 1247.24,-163.5 1247.24,-170.5"/>
</g>
<!-- NavbarComponent -->
<g id="node12" class="node">
<title>NavbarComponent</title>
<polygon fill="#ffffb3" stroke="black" points="594.03,-122 471.97,-122 471.97,-86 594.03,-86 594.03,-122"/>
<text text-anchor="middle" x="533" y="-99.8" font-family="Times,serif" font-size="14.00">NavbarComponent</text>
</g>
<!-- NavbarComponent&#45;&gt;AppModule -->
<g id="edge12" class="edge">
<title>NavbarComponent&#45;&gt;AppModule</title>
<path fill="none" stroke="black" d="M533,-122.31C533,-142.15 533,-171 533,-171 533,-171 1247.27,-171 1247.27,-171"/>
<polygon fill="black" stroke="black" points="1247.27,-174.5 1257.27,-171 1247.27,-167.5 1247.27,-174.5"/>
</g>
<!-- NotfoundComponent -->
<g id="node13" class="node">
<title>NotfoundComponent</title>
<polygon fill="#ffffb3" stroke="black" points="453.49,-122 318.51,-122 318.51,-86 453.49,-86 453.49,-122"/>
<text text-anchor="middle" x="386" y="-99.8" font-family="Times,serif" font-size="14.00">NotfoundComponent</text>
</g>
<!-- NotfoundComponent&#45;&gt;AppModule -->
<g id="edge13" class="edge">
<title>NotfoundComponent&#45;&gt;AppModule</title>
<path fill="none" stroke="black" d="M386,-122.28C386,-143.32 386,-175 386,-175 386,-175 1247.1,-175 1247.1,-175"/>
<polygon fill="black" stroke="black" points="1247.1,-178.5 1257.1,-175 1247.1,-171.5 1247.1,-178.5"/>
</g>
<!-- ProductsComponent -->
<g id="node14" class="node">
<title>ProductsComponent</title>
<polygon fill="#ffffb3" stroke="black" points="300.33,-122 169.67,-122 169.67,-86 300.33,-86 300.33,-122"/>
<text text-anchor="middle" x="235" y="-99.8" font-family="Times,serif" font-size="14.00">ProductsComponent</text>
</g>
<!-- ProductsComponent&#45;&gt;AppModule -->
<g id="edge14" class="edge">
<title>ProductsComponent&#45;&gt;AppModule</title>
<path fill="none" stroke="black" d="M235,-122.16C235,-144.35 235,-179 235,-179 235,-179 1247.29,-179 1247.29,-179"/>
<polygon fill="black" stroke="black" points="1247.29,-182.5 1257.29,-179 1247.29,-175.5 1247.29,-182.5"/>
</g>
<!-- RegisterComponent -->
<g id="node15" class="node">
<title>RegisterComponent</title>
<polygon fill="#ffffb3" stroke="black" points="151.98,-122 24.02,-122 24.02,-86 151.98,-86 151.98,-122"/>
<text text-anchor="middle" x="88" y="-99.8" font-family="Times,serif" font-size="14.00">RegisterComponent</text>
</g>
<!-- RegisterComponent&#45;&gt;AppModule -->
<g id="edge15" class="edge">
<title>RegisterComponent&#45;&gt;AppModule</title>
<path fill="none" stroke="black" d="M88,-122.32C88,-145.66 88,-183 88,-183 88,-183 1247.31,-183 1247.31,-183"/>
<polygon fill="black" stroke="black" points="1247.31,-186.5 1257.31,-183 1247.31,-179.5 1247.31,-186.5"/>
</g>
<!-- AppComponent  -->
<g id="node20" class="node">
<title>AppComponent </title>
<polygon fill="#80b1d3" stroke="black" points="1353.44,-252 1244.56,-252 1244.56,-216 1353.44,-216 1353.44,-252"/>
<text text-anchor="middle" x="1299" y="-229.8" font-family="Times,serif" font-size="14.00">AppComponent </text>
</g>
<!-- AppModule&#45;&gt;AppComponent  -->
<g id="edge19" class="edge">
<title>AppModule&#45;&gt;AppComponent </title>
<path fill="none" stroke="black" stroke-dasharray="1,5" d="M1299,-187.11C1299,-187.11 1299,-205.99 1299,-205.99"/>
<polygon fill="black" stroke="black" points="1295.5,-205.99 1299,-215.99 1302.5,-205.99 1295.5,-205.99"/>
</g>
<!-- AppRoutingModule -->
<g id="node17" class="node">
<title>AppRoutingModule</title>
<polygon fill="#8dd3c7" stroke="black" points="2560.27,-122 2557.27,-126 2536.27,-126 2533.27,-122 2431.73,-122 2431.73,-86 2560.27,-86 2560.27,-122"/>
<text text-anchor="middle" x="2496" y="-99.8" font-family="Times,serif" font-size="14.00">AppRoutingModule</text>
</g>
<!-- AppRoutingModule&#45;&gt;AppModule -->
<g id="edge16" class="edge">
<title>AppRoutingModule&#45;&gt;AppModule</title>
<path fill="none" stroke="black" d="M2496,-122.32C2496,-145.66 2496,-183 2496,-183 2496,-183 1350.9,-183 1350.9,-183"/>
<polygon fill="black" stroke="black" points="1350.9,-179.5 1340.9,-183 1350.9,-186.5 1350.9,-179.5"/>
</g>
<!-- RouterLink -->
<g id="node18" class="node">
<title>RouterLink</title>
<polygon fill="#8dd3c7" stroke="black" points="2413.05,-122 2410.05,-126 2389.05,-126 2386.05,-122 2332.95,-122 2332.95,-86 2413.05,-86 2413.05,-122"/>
<text text-anchor="middle" x="2373" y="-99.8" font-family="Times,serif" font-size="14.00">RouterLink</text>
</g>
<!-- RouterLink&#45;&gt;AppModule -->
<g id="edge17" class="edge">
<title>RouterLink&#45;&gt;AppModule</title>
<path fill="none" stroke="black" d="M2373,-122.16C2373,-144.35 2373,-179 2373,-179 2373,-179 1350.77,-179 1350.77,-179"/>
<polygon fill="black" stroke="black" points="1350.77,-175.5 1340.77,-179 1350.77,-182.5 1350.77,-175.5"/>
</g>
<!-- RouterLinkActive -->
<g id="node19" class="node">
<title>RouterLinkActive</title>
<polygon fill="#8dd3c7" stroke="black" points="2314.86,-122 2311.86,-126 2290.86,-126 2287.86,-122 2197.14,-122 2197.14,-86 2314.86,-86 2314.86,-122"/>
<text text-anchor="middle" x="2256" y="-99.8" font-family="Times,serif" font-size="14.00">RouterLinkActive</text>
</g>
<!-- RouterLinkActive&#45;&gt;AppModule -->
<g id="edge18" class="edge">
<title>RouterLinkActive&#45;&gt;AppModule</title>
<path fill="none" stroke="black" d="M2256,-122.28C2256,-143.32 2256,-175 2256,-175 2256,-175 1350.74,-175 1350.74,-175"/>
<polygon fill="black" stroke="black" points="1350.74,-171.5 1340.74,-175 1350.74,-178.5 1350.74,-171.5"/>
</g>
</g>
</svg>
