<?xml version="1.0" encoding="UTF-8" standalone="no"?>
<!DOCTYPE svg PUBLIC "-//W3C//DTD SVG 1.1//EN"
 "http://www.w3.org/Graphics/SVG/1.1/DTD/svg11.dtd">
<!-- Generated by graphviz version 2.47.0 (20210316.0004)
 -->
<!-- Title: dependencies Pages: 1 -->
<svg width="2592pt" height="284pt"
 viewBox="0.00 0.00 2592.00 284.00" xmlns="http://www.w3.org/2000/svg" xmlns:xlink="http://www.w3.org/1999/xlink">
<g id="graph0" class="graph" transform="scale(1 1) rotate(0) translate(4 280)">
<title>dependencies</title>
<polygon fill="white" stroke="transparent" points="-4,4 -4,-280 2588,-280 2588,4 -4,4"/>
<text text-anchor="start" x="1271.01" y="-42.4" font-family="Times-12" font-weight="bold" font-size="14.00">Legend</text>
<polygon fill="#ffffb3" stroke="transparent" points="1058,-10 1058,-30 1078,-30 1078,-10 1058,-10"/>
<text text-anchor="start" x="1081.63" y="-15.4" font-family="Times-12" font-size="14.00"> &#160;Declarations</text>
<polygon fill="#8dd3c7" stroke="transparent" points="1171,-10 1171,-30 1191,-30 1191,-10 1171,-10"/>
<text text-anchor="start" x="1194.73" y="-15.4" font-family="Times-12" font-size="14.00"> &#160;Module</text>
<polygon fill="#80b1d3" stroke="transparent" points="1257,-10 1257,-30 1277,-30 1277,-10 1257,-10"/>
<text text-anchor="start" x="1280.78" y="-15.4" font-family="Times-12" font-size="14.00"> &#160;Bootstrap</text>
<polygon fill="#fdb462" stroke="transparent" points="1354,-10 1354,-30 1374,-30 1374,-10 1354,-10"/>
<text text-anchor="start" x="1377.67" y="-15.4" font-family="Times-12" font-size="14.00"> &#160;Providers</text>
<polygon fill="#fb8072" stroke="transparent" points="1450,-10 1450,-30 1470,-30 1470,-10 1450,-10"/>
<text text-anchor="start" x="1473.73" y="-15.4" font-family="Times-12" font-size="14.00"> &#160;Exports</text>
<g id="clust1" class="cluster">
<title>cluster_AppModule</title>
<polygon fill="none" stroke="black" stroke-dasharray="1,5" points="8,-70 8,-268 2576,-268 2576,-70 8,-70"/>
</g>
<g id="clust2" class="cluster">
<title>cluster_AppModule_declarations</title>
<polygon fill="none" stroke="black" points="403,-78 403,-130 2568,-130 2568,-78 403,-78"/>
</g>
<g id="clust18" class="cluster">
<title>cluster_AppModule_imports</title>
<polygon fill="none" stroke="black" points="16,-78 16,-130 395,-130 395,-78 16,-78"/>
</g>
<g id="clust20" class="cluster">
<title>cluster_AppModule_bootstrap</title>
<polygon fill="none" stroke="black" points="1195,-208 1195,-260 1319,-260 1319,-208 1195,-208"/>
</g>
<!-- AppComponent -->
<g id="node1" class="node">
<title>AppComponent</title>
<polygon fill="#ffffb3" stroke="black" points="2559.94,-122 2454.06,-122 2454.06,-86 2559.94,-86 2559.94,-122"/>
<text text-anchor="middle" x="2507" y="-99.8" font-family="Times,serif" font-size="14.00">AppComponent</text>
</g>
<!-- AppModule -->
<g id="node16" class="node">
<title>AppModule</title>
<polygon fill="#8dd3c7" stroke="black" points="1298.66,-187 1295.66,-191 1274.66,-191 1271.66,-187 1215.34,-187 1215.34,-151 1298.66,-151 1298.66,-187"/>
<text text-anchor="middle" x="1257" y="-164.8" font-family="Times,serif" font-size="14.00">AppModule</text>
</g>
<!-- AppComponent&#45;&gt;AppModule -->
<g id="edge1" class="edge">
<title>AppComponent&#45;&gt;AppModule</title>
<path fill="none" stroke="black" d="M2507,-122.32C2507,-145.66 2507,-183 2507,-183 2507,-183 1308.95,-183 1308.95,-183"/>
<polygon fill="black" stroke="black" points="1308.95,-179.5 1298.95,-183 1308.95,-186.5 1308.95,-179.5"/>
</g>
<!-- AuthLayoutComponent -->
<g id="node2" class="node">
<title>AuthLayoutComponent</title>
<polygon fill="#ffffb3" stroke="black" points="2436.49,-122 2287.51,-122 2287.51,-86 2436.49,-86 2436.49,-122"/>
<text text-anchor="middle" x="2362" y="-99.8" font-family="Times,serif" font-size="14.00">AuthLayoutComponent</text>
</g>
<!-- AuthLayoutComponent&#45;&gt;AppModule -->
<g id="edge2" class="edge">
<title>AuthLayoutComponent&#45;&gt;AppModule</title>
<path fill="none" stroke="black" d="M2362,-122.16C2362,-144.35 2362,-179 2362,-179 2362,-179 1308.97,-179 1308.97,-179"/>
<polygon fill="black" stroke="black" points="1308.97,-175.5 1298.97,-179 1308.97,-182.5 1308.97,-175.5"/>
</g>
<!-- BlankLayoutComponent -->
<g id="node3" class="node">
<title>BlankLayoutComponent</title>
<polygon fill="#ffffb3" stroke="black" points="2269.43,-122 2114.57,-122 2114.57,-86 2269.43,-86 2269.43,-122"/>
<text text-anchor="middle" x="2192" y="-99.8" font-family="Times,serif" font-size="14.00">BlankLayoutComponent</text>
</g>
<!-- BlankLayoutComponent&#45;&gt;AppModule -->
<g id="edge3" class="edge">
<title>BlankLayoutComponent&#45;&gt;AppModule</title>
<path fill="none" stroke="black" d="M2192,-122.28C2192,-143.32 2192,-175 2192,-175 2192,-175 1308.69,-175 1308.69,-175"/>
<polygon fill="black" stroke="black" points="1308.69,-171.5 1298.69,-175 1308.69,-178.5 1308.69,-171.5"/>
</g>
<!-- BrandsComponent -->
<g id="node4" class="node">
<title>BrandsComponent</title>
<polygon fill="#ffffb3" stroke="black" points="2096.49,-122 1975.51,-122 1975.51,-86 2096.49,-86 2096.49,-122"/>
<text text-anchor="middle" x="2036" y="-99.8" font-family="Times,serif" font-size="14.00">BrandsComponent</text>
</g>
<!-- BrandsComponent&#45;&gt;AppModule -->
<g id="edge4" class="edge">
<title>BrandsComponent&#45;&gt;AppModule</title>
<path fill="none" stroke="black" d="M2036,-122.31C2036,-142.15 2036,-171 2036,-171 2036,-171 1308.88,-171 1308.88,-171"/>
<polygon fill="black" stroke="black" points="1308.88,-167.5 1298.88,-171 1308.88,-174.5 1308.88,-167.5"/>
</g>
<!-- CartComponent -->
<g id="node5" class="node">
<title>CartComponent</title>
<polygon fill="#ffffb3" stroke="black" points="1957.94,-122 1852.06,-122 1852.06,-86 1957.94,-86 1957.94,-122"/>
<text text-anchor="middle" x="1905" y="-99.8" font-family="Times,serif" font-size="14.00">CartComponent</text>
</g>
<!-- CartComponent&#45;&gt;AppModule -->
<g id="edge5" class="edge">
<title>CartComponent&#45;&gt;AppModule</title>
<path fill="none" stroke="black" d="M1905,-122.22C1905,-140.83 1905,-167 1905,-167 1905,-167 1309.02,-167 1309.02,-167"/>
<polygon fill="black" stroke="black" points="1309.02,-163.5 1299.02,-167 1309.02,-170.5 1309.02,-163.5"/>
</g>
<!-- CategoriesComponent -->
<g id="node6" class="node">
<title>CategoriesComponent</title>
<polygon fill="#ffffb3" stroke="black" points="1834.7,-122 1693.3,-122 1693.3,-86 1834.7,-86 1834.7,-122"/>
<text text-anchor="middle" x="1764" y="-99.8" font-family="Times,serif" font-size="14.00">CategoriesComponent</text>
</g>
<!-- CategoriesComponent&#45;&gt;AppModule -->
<g id="edge6" class="edge">
<title>CategoriesComponent&#45;&gt;AppModule</title>
<path fill="none" stroke="black" d="M1764,-122.02C1764,-139.37 1764,-163 1764,-163 1764,-163 1308.92,-163 1308.92,-163"/>
<polygon fill="black" stroke="black" points="1308.92,-159.5 1298.92,-163 1308.92,-166.5 1308.92,-159.5"/>
</g>
<!-- CheckoutComponent -->
<g id="node7" class="node">
<title>CheckoutComponent</title>
<polygon fill="#ffffb3" stroke="black" points="1675.49,-122 1540.51,-122 1540.51,-86 1675.49,-86 1675.49,-122"/>
<text text-anchor="middle" x="1608" y="-99.8" font-family="Times,serif" font-size="14.00">CheckoutComponent</text>
</g>
<!-- CheckoutComponent&#45;&gt;AppModule -->
<g id="edge7" class="edge">
<title>CheckoutComponent&#45;&gt;AppModule</title>
<path fill="none" stroke="black" d="M1608,-122.01C1608,-138.05 1608,-159 1608,-159 1608,-159 1308.99,-159 1308.99,-159"/>
<polygon fill="black" stroke="black" points="1308.99,-155.5 1298.99,-159 1308.99,-162.5 1308.99,-155.5"/>
</g>
<!-- DetailsComponent -->
<g id="node8" class="node">
<title>DetailsComponent</title>
<polygon fill="#ffffb3" stroke="black" points="1522.48,-122 1401.52,-122 1401.52,-86 1522.48,-86 1522.48,-122"/>
<text text-anchor="middle" x="1462" y="-99.8" font-family="Times,serif" font-size="14.00">DetailsComponent</text>
</g>
<!-- DetailsComponent&#45;&gt;AppModule -->
<g id="edge8" class="edge">
<title>DetailsComponent&#45;&gt;AppModule</title>
<path fill="none" stroke="black" d="M1462,-122.12C1462,-136.78 1462,-155 1462,-155 1462,-155 1308.98,-155 1308.98,-155"/>
<polygon fill="black" stroke="black" points="1308.98,-151.5 1298.98,-155 1308.98,-158.5 1308.98,-151.5"/>
</g>
<!-- FooterComponent -->
<g id="node9" class="node">
<title>FooterComponent</title>
<polygon fill="#ffffb3" stroke="black" points="1383.88,-122 1266.12,-122 1266.12,-86 1383.88,-86 1383.88,-122"/>
<text text-anchor="middle" x="1325" y="-99.8" font-family="Times,serif" font-size="14.00">FooterComponent</text>
</g>
<!-- FooterComponent&#45;&gt;AppModule -->
<g id="edge9" class="edge">
<title>FooterComponent&#45;&gt;AppModule</title>
<path fill="none" stroke="black" d="M1282.44,-122.11C1282.44,-122.11 1282.44,-140.99 1282.44,-140.99"/>
<polygon fill="black" stroke="black" points="1278.94,-140.99 1282.44,-150.99 1285.94,-140.99 1278.94,-140.99"/>
</g>
<!-- HomeComponent -->
<g id="node10" class="node">
<title>HomeComponent</title>
<polygon fill="#ffffb3" stroke="black" points="1247.55,-122 1132.45,-122 1132.45,-86 1247.55,-86 1247.55,-122"/>
<text text-anchor="middle" x="1190" y="-99.8" font-family="Times,serif" font-size="14.00">HomeComponent</text>
</g>
<!-- HomeComponent&#45;&gt;AppModule -->
<g id="edge10" class="edge">
<title>HomeComponent&#45;&gt;AppModule</title>
<path fill="none" stroke="black" d="M1231.47,-122.11C1231.47,-122.11 1231.47,-140.99 1231.47,-140.99"/>
<polygon fill="black" stroke="black" points="1227.97,-140.99 1231.47,-150.99 1234.97,-140.99 1227.97,-140.99"/>
</g>
<!-- LoginComponent -->
<g id="node11" class="node">
<title>LoginComponent</title>
<polygon fill="#ffffb3" stroke="black" points="1114.28,-122 999.72,-122 999.72,-86 1114.28,-86 1114.28,-122"/>
<text text-anchor="middle" x="1057" y="-99.8" font-family="Times,serif" font-size="14.00">LoginComponent</text>
</g>
<!-- LoginComponent&#45;&gt;AppModule -->
<g id="edge11" class="edge">
<title>LoginComponent&#45;&gt;AppModule</title>
<path fill="none" stroke="black" d="M1057,-122.12C1057,-136.78 1057,-155 1057,-155 1057,-155 1205.07,-155 1205.07,-155"/>
<polygon fill="black" stroke="black" points="1205.07,-158.5 1215.07,-155 1205.07,-151.5 1205.07,-158.5"/>
</g>
<!-- NavbarComponent -->
<g id="node12" class="node">
<title>NavbarComponent</title>
<polygon fill="#ffffb3" stroke="black" points="981.03,-122 858.97,-122 858.97,-86 981.03,-86 981.03,-122"/>
<text text-anchor="middle" x="920" y="-99.8" font-family="Times,serif" font-size="14.00">NavbarComponent</text>
</g>
<!-- NavbarComponent&#45;&gt;AppModule -->
<g id="edge12" class="edge">
<title>NavbarComponent&#45;&gt;AppModule</title>
<path fill="none" stroke="black" d="M920,-122.01C920,-138.05 920,-159 920,-159 920,-159 1205.34,-159 1205.34,-159"/>
<polygon fill="black" stroke="black" points="1205.34,-162.5 1215.34,-159 1205.34,-155.5 1205.34,-162.5"/>
</g>
<!-- NotfoundComponent -->
<g id="node13" class="node">
<title>NotfoundComponent</title>
<polygon fill="#ffffb3" stroke="black" points="840.49,-122 705.51,-122 705.51,-86 840.49,-86 840.49,-122"/>
<text text-anchor="middle" x="773" y="-99.8" font-family="Times,serif" font-size="14.00">NotfoundComponent</text>
</g>
<!-- NotfoundComponent&#45;&gt;AppModule -->
<g id="edge13" class="edge">
<title>NotfoundComponent&#45;&gt;AppModule</title>
<path fill="none" stroke="black" d="M773,-122.02C773,-139.37 773,-163 773,-163 773,-163 1205.32,-163 1205.32,-163"/>
<polygon fill="black" stroke="black" points="1205.32,-166.5 1215.32,-163 1205.32,-159.5 1205.32,-166.5"/>
</g>
<!-- ProductsComponent -->
<g id="node14" class="node">
<title>ProductsComponent</title>
<polygon fill="#ffffb3" stroke="black" points="687.33,-122 556.67,-122 556.67,-86 687.33,-86 687.33,-122"/>
<text text-anchor="middle" x="622" y="-99.8" font-family="Times,serif" font-size="14.00">ProductsComponent</text>
</g>
<!-- ProductsComponent&#45;&gt;AppModule -->
<g id="edge14" class="edge">
<title>ProductsComponent&#45;&gt;AppModule</title>
<path fill="none" stroke="black" d="M622,-122.22C622,-140.83 622,-167 622,-167 622,-167 1205.34,-167 1205.34,-167"/>
<polygon fill="black" stroke="black" points="1205.34,-170.5 1215.34,-167 1205.34,-163.5 1205.34,-170.5"/>
</g>
<!-- RegisterComponent -->
<g id="node15" class="node">
<title>RegisterComponent</title>
<polygon fill="#ffffb3" stroke="black" points="538.98,-122 411.02,-122 411.02,-86 538.98,-86 538.98,-122"/>
<text text-anchor="middle" x="475" y="-99.8" font-family="Times,serif" font-size="14.00">RegisterComponent</text>
</g>
<!-- RegisterComponent&#45;&gt;AppModule -->
<g id="edge15" class="edge">
<title>RegisterComponent&#45;&gt;AppModule</title>
<path fill="none" stroke="black" d="M475,-122.31C475,-142.15 475,-171 475,-171 475,-171 1205.23,-171 1205.23,-171"/>
<polygon fill="black" stroke="black" points="1205.23,-174.5 1215.23,-171 1205.23,-167.5 1205.23,-174.5"/>
</g>
<!-- AppComponent  -->
<g id="node20" class="node">
<title>AppComponent </title>
<polygon fill="#80b1d3" stroke="black" points="1311.44,-252 1202.56,-252 1202.56,-216 1311.44,-216 1311.44,-252"/>
<text text-anchor="middle" x="1257" y="-229.8" font-family="Times,serif" font-size="14.00">AppComponent </text>
</g>
<!-- AppModule&#45;&gt;AppComponent  -->
<g id="edge19" class="edge">
<title>AppModule&#45;&gt;AppComponent </title>
<path fill="none" stroke="black" stroke-dasharray="1,5" d="M1257,-187.11C1257,-187.11 1257,-205.99 1257,-205.99"/>
<polygon fill="black" stroke="black" points="1253.5,-205.99 1257,-215.99 1260.5,-205.99 1253.5,-205.99"/>
</g>
<!-- AppRoutingModule -->
<g id="node17" class="node">
<title>AppRoutingModule</title>
<polygon fill="#8dd3c7" stroke="black" points="387.27,-122 384.27,-126 363.27,-126 360.27,-122 258.73,-122 258.73,-86 387.27,-86 387.27,-122"/>
<text text-anchor="middle" x="323" y="-99.8" font-family="Times,serif" font-size="14.00">AppRoutingModule</text>
</g>
<!-- AppRoutingModule&#45;&gt;AppModule -->
<g id="edge16" class="edge">
<title>AppRoutingModule&#45;&gt;AppModule</title>
<path fill="none" stroke="black" d="M323,-122.28C323,-143.32 323,-175 323,-175 323,-175 1205.05,-175 1205.05,-175"/>
<polygon fill="black" stroke="black" points="1205.05,-178.5 1215.05,-175 1205.05,-171.5 1205.05,-178.5"/>
</g>
<!-- RouterLink -->
<g id="node18" class="node">
<title>RouterLink</title>
<polygon fill="#8dd3c7" stroke="black" points="240.05,-122 237.05,-126 216.05,-126 213.05,-122 159.95,-122 159.95,-86 240.05,-86 240.05,-122"/>
<text text-anchor="middle" x="200" y="-99.8" font-family="Times,serif" font-size="14.00">RouterLink</text>
</g>
<!-- RouterLink&#45;&gt;AppModule -->
<g id="edge17" class="edge">
<title>RouterLink&#45;&gt;AppModule</title>
<path fill="none" stroke="black" d="M200,-122.16C200,-144.35 200,-179 200,-179 200,-179 1205.24,-179 1205.24,-179"/>
<polygon fill="black" stroke="black" points="1205.24,-182.5 1215.24,-179 1205.24,-175.5 1205.24,-182.5"/>
</g>
<!-- RouterLinkActive -->
<g id="node19" class="node">
<title>RouterLinkActive</title>
<polygon fill="#8dd3c7" stroke="black" points="141.86,-122 138.86,-126 117.86,-126 114.86,-122 24.14,-122 24.14,-86 141.86,-86 141.86,-122"/>
<text text-anchor="middle" x="83" y="-99.8" font-family="Times,serif" font-size="14.00">RouterLinkActive</text>
</g>
<!-- RouterLinkActive&#45;&gt;AppModule -->
<g id="edge18" class="edge">
<title>RouterLinkActive&#45;&gt;AppModule</title>
<path fill="none" stroke="black" d="M83,-122.32C83,-145.66 83,-183 83,-183 83,-183 1205.22,-183 1205.22,-183"/>
<polygon fill="black" stroke="black" points="1205.22,-186.5 1215.22,-183 1205.22,-179.5 1205.22,-186.5"/>
</g>
</g>
</svg>
